<svg width="50" height="50" viewBox="0 0 50 50" fill="none" xmlns="http://www.w3.org/2000/svg">
<rect width="50" height="50" rx="25" fill="white"/>
<path d="M34.1744 22.6394C33.8209 22.27 33.4553 21.8894 33.3175 21.5547C33.19 21.2481 33.1825 20.74 33.175 20.2478C33.1609 19.3328 33.1459 18.2959 32.425 17.575C31.7041 16.8541 30.6672 16.8391 29.7522 16.825C29.26 16.8175 28.7519 16.81 28.4453 16.6825C28.1116 16.5447 27.73 16.1791 27.3606 15.8256C26.7137 15.2041 25.9788 14.5 25 14.5C24.0212 14.5 23.2872 15.2041 22.6394 15.8256C22.27 16.1791 21.8894 16.5447 21.5547 16.6825C21.25 16.81 20.74 16.8175 20.2478 16.825C19.3328 16.8391 18.2959 16.8541 17.575 17.575C16.8541 18.2959 16.8438 19.3328 16.825 20.2478C16.8175 20.74 16.81 21.2481 16.6825 21.5547C16.5447 21.8884 16.1791 22.27 15.8256 22.6394C15.2041 23.2863 14.5 24.0212 14.5 25C14.5 25.9788 15.2041 26.7128 15.8256 27.3606C16.1791 27.73 16.5447 28.1106 16.6825 28.4453C16.81 28.7519 16.8175 29.26 16.825 29.7522C16.8391 30.6672 16.8541 31.7041 17.575 32.425C18.2959 33.1459 19.3328 33.1609 20.2478 33.175C20.74 33.1825 21.2481 33.19 21.5547 33.3175C21.8884 33.4553 22.27 33.8209 22.6394 34.1744C23.2863 34.7959 24.0212 35.5 25 35.5C25.9788 35.5 26.7128 34.7959 27.3606 34.1744C27.73 33.8209 28.1106 33.4553 28.4453 33.3175C28.7519 33.19 29.26 33.1825 29.7522 33.175C30.6672 33.1609 31.7041 33.1459 32.425 32.425C33.1459 31.7041 33.1609 30.6672 33.175 29.7522C33.1825 29.26 33.19 28.7519 33.3175 28.4453C33.4553 28.1116 33.8209 27.73 34.1744 27.3606C34.7959 26.7137 35.5 25.9788 35.5 25C35.5 24.0212 34.7959 23.2872 34.1744 22.6394ZM29.2806 23.2806L24.0306 28.5306C23.961 28.6004 23.8783 28.6557 23.7872 28.6934C23.6962 28.7312 23.5986 28.7506 23.5 28.7506C23.4014 28.7506 23.3038 28.7312 23.2128 28.6934C23.1217 28.6557 23.039 28.6004 22.9694 28.5306L20.7194 26.2806C20.5786 26.1399 20.4996 25.949 20.4996 25.75C20.4996 25.551 20.5786 25.3601 20.7194 25.2194C20.8601 25.0786 21.051 24.9996 21.25 24.9996C21.449 24.9996 21.6399 25.0786 21.7806 25.2194L23.5 26.9397L28.2194 22.2194C28.2891 22.1497 28.3718 22.0944 28.4628 22.0567C28.5539 22.019 28.6515 21.9996 28.75 21.9996C28.8485 21.9996 28.9461 22.019 29.0372 22.0567C29.1282 22.0944 29.2109 22.1497 29.2806 22.2194C29.3503 22.2891 29.4056 22.3718 29.4433 22.4628C29.481 22.5539 29.5004 22.6515 29.5004 22.75C29.5004 22.8485 29.481 22.9461 29.4433 23.0372C29.4056 23.1282 29.3503 23.2109 29.2806 23.2806Z" fill="black"/>
</svg>
